<?xml version="1.0" encoding="utf-8"?>
<!-- Generator: Adobe Illustrator 25.0.1, SVG Export Plug-In . SVG Version: 6.00 Build 0)  -->
<svg version="1.2" baseProfile="tiny" id="레이어_1"
	 xmlns="http://www.w3.org/2000/svg" xmlns:xlink="http://www.w3.org/1999/xlink" x="0px" y="0px" viewBox="0 0 2048 2048"
	 overflow="visible" xml:space="preserve">
<g>
	<g>
		<path fill="#FFFFFF" d="M1554.844,751.008c0,293.175-237.689,530.844-530.844,530.844c-293.182,0-530.844-237.668-530.844-530.844
			c0-293.161,237.661-530.829,530.844-530.829C1317.154,220.178,1554.844,457.846,1554.844,751.008z"/>
		<g>
			<g>
				<g>
					<g>
						<g>
							<g>
								<path fill="#003764" d="M1273.155,714.008c-84.436-57.385-192.536-34.017-249.375,52.263
									c-47.278,72.115-118.835,81.088-146.398,81.088c-90.408,0-152.093-63.548-170.427-129.271c0,0-0.896-3.328-1.131-4.08
									c-7.207-27.473-9.029-40.52-9.029-69.671c0-157.083,161.295-332.067,393.406-332.067
									c237.793,0,373.885,181.016,409.048,281.648c-0.704-1.892-1.277-3.575-1.849-5.35
									c-67.463-196.796-254.05-338.245-473.853-338.245c-276.366,0-500.553,224.07-500.553,500.67
									c0,247.174,178.275,458.729,425.614,458.729c197.169,0,329.733-110.544,390.452-262.968
									C1372.448,863.353,1348.867,765.428,1273.155,714.008z"/>
							</g>
							<g>
								<path fill="#E4032E" d="M1502.312,603.637c-29.33-98.173-166.299-291.367-412.113-291.367
									c-232.111,0-393.406,174.984-393.406,332.067c0,29.151,1.822,42.198,9.029,69.671c-3.017-12.032-4.556-24.008-4.556-35.722
									c0-163.641,163.807-276.995,332.218-276.995c228.039,0,412.851,184.819,412.851,412.762
									c0,178.682-102.854,333.454-252.22,407.743v0.138c192.62-69.761,330.168-254.277,330.168-470.94
									C1524.284,699.712,1517.409,654.484,1502.312,603.637z"/>
							</g>
						</g>
					</g>
				</g>
			</g>
		</g>
	</g>
	<g>
		<path fill="#575757" d="M687.134,1746.84h-38.665v-216.946H528.898v-34.725h158.236V1746.84z M765.177,1475.838h38.663v311.815
			h-38.663V1475.838z"/>
		<path fill="#575757" d="M974.693,1474.047l95.942,137.83l-30.787,21.121l-65.155-94.511l-64.441,97.019l-31.502-21.122
			L974.693,1474.047z M1126.843,1721.422c0,10.507-2.148,20.35-6.444,29.536c-4.297,9.186-10.025,17.241-17.185,24.166
			c-7.399,6.918-16.053,12.407-25.956,16.469c-9.906,4.056-20.349,6.084-31.323,6.084c-10.982,0-21.481-2.027-31.504-6.084
			c-10.024-4.062-18.739-9.55-26.135-16.469c-7.159-6.925-12.886-14.98-17.183-24.166c-4.297-9.186-6.445-19.03-6.445-29.536
			c0-10.498,2.148-20.403,6.445-29.71c4.295-9.308,10.022-17.419,17.183-24.343c7.395-6.922,16.11-12.406,26.135-16.468
			c10.024-4.056,20.523-6.087,31.504-6.087c10.974,0,21.417,2.031,31.323,6.087c9.902,4.062,18.556,9.548,25.956,16.468
			c7.161,6.925,12.889,15.036,17.185,24.343C1124.695,1701.018,1126.843,1710.924,1126.843,1721.422z M1088.895,1721.063
			c0-11.691-4.295-21.774-12.887-30.246c-8.592-8.47-18.739-12.709-30.429-12.709c-11.697,0-21.783,4.239-30.251,12.709
			c-8.476,8.472-12.71,18.556-12.71,30.246c0,11.697,4.234,21.721,12.71,30.072c8.468,8.355,18.554,12.532,30.251,12.532
			c11.689,0,21.835-4.177,30.429-12.532C1084.599,1742.784,1088.895,1732.76,1088.895,1721.063z M1142.594,1641.232h-38.662
			v-165.395h38.662v60.5h44.751v38.306h-44.751V1641.232z"/>
		<path fill="#575757" d="M1243.802,1535.265v-32.578h73.033v-30.43h41.168v30.43h69.452v32.578h-75.18l78.045,79.475
			l-25.776,23.985l-67.305-69.808l-66.231,75.536l-26.489-24.702l78.043-84.488h-78.759V1535.265z M1492.609,1721.422
			c0,10.507-2.15,20.35-6.445,29.536c-4.295,9.186-10.025,17.241-17.183,24.166c-7.401,6.918-16.055,12.407-25.953,16.469
			c-9.909,4.056-20.35,6.084-31.327,6.084c-10.98,0-21.478-2.027-31.501-6.084c-10.025-4.062-18.739-9.55-26.135-16.469
			c-7.161-6.925-12.89-14.98-17.185-24.166c-4.295-9.186-6.445-19.03-6.445-29.536c0-10.498,2.149-20.403,6.445-29.71
			c4.295-9.308,10.024-17.419,17.185-24.343c7.395-6.922,16.11-12.406,26.135-16.468c10.025-4.056,20.521-6.087,31.501-6.087
			c10.977,0,21.418,2.031,31.327,6.087c9.899,4.062,18.553,9.548,25.953,16.468c7.158,6.925,12.886,15.036,17.183,24.343
			C1490.46,1701.018,1492.609,1710.924,1492.609,1721.422z M1454.663,1721.063c0-11.691-4.295-21.774-12.89-30.246
			c-8.591-8.47-18.739-12.709-30.43-12.709c-11.697,0-21.78,4.239-30.25,12.709c-8.472,8.472-12.709,18.556-12.709,30.246
			c0,11.697,4.237,21.721,12.709,30.072c8.47,8.355,18.553,12.532,30.25,12.532c11.691,0,21.839-4.177,30.43-12.532
			C1450.367,1742.784,1454.663,1732.76,1454.663,1721.063z M1480.436,1650.182V1579.3h-54.415v-33.294h54.415v-70.168h38.666
			v174.345H1480.436L1480.436,1650.182z"/>
	</g>
</g>
</svg>
